REM MD5 19bca593ec8706b34ddcbd1f005e8287
FILE "Euro Demo 33 (France).bin" BINARY
  TRACK 01 MODE2/2352
    INDEX 01 00:00:00
  TRACK 02 AUDIO
    INDEX 00 46:52:21
    INDEX 01 46:54:21
  TRACK 03 AUDIO
    INDEX 00 49:59:54
    INDEX 01 50:01:54
REM LEADOUT 53:03:11
